<svg id="Layer_1" data-name="Layer 1" xmlns="http://www.w3.org/2000/svg" viewBox="0 0 189.64 209.62"><path d="M283.19,329c3.24.32,6.55.31,9.68,1.05,2,.48,3.75,2.06,5.61,3.14-1.85.93-3.68,1.89-5.56,2.77a7.17,7.17,0,0,1-1.8.23l5.82,2.89c-2.62,1.21-4.29,2.12-6.06,2.75s-3.46.89-6.42,1.63l12.76,1.13.47,1.88c-1.5.83-2.93,2.22-4.51,2.39-7.9.88-15.85,1.37-23.77,2.15a13.1,13.1,0,0,0-5.47,1.59c-.9.55-1,2.37-1.48,3.62a12.65,12.65,0,0,0,3.41-.47c10.3-4.38,21.1-5.37,32.13-4.79.42,0,.82.45,1.47.82-.62,4-3.57,5.64-6.87,6.05-8.5,1-17.05,1.63-25.1,2.36,9.24,3.11,19.25,2.15,29.31.07l.19,1.66c-5.53.67-11.1,2.08-16.58,1.8-5.88-.31-12,0-17.22-4.82-3.17-2.92-3.34-4.65-1.39-7-1.85-1.29-5-2.6-4.87-3.55.24-2.1,2.1-4,3.38-6.16-5-5.08-2.92-10.79,5.65-13.1-3-3.77-6.42-7.16-8.82-11.14-2.25-3.75-3.38-8.17-5.18-12.22s-3.05-9.13-6.08-12.23C235.4,282.68,233,269,231.16,255.18c-1.48-11.13-.54-22.24,4.88-32.52,5.55-10.54,14.26-16.7,26.1-17.51,14.24-1,28.35.65,41.47,6.49,21.08,9.37,24.32,22.47,24.17,42.06a52.52,52.52,0,0,1-8.5,27.75c-5.47,8.75-10.08,17.83-12.48,28-2,8.47-9.21,12.18-16.47,15.42-2.38,1.06-4.86,1.87-7.3,2.79ZM315,225.75c8.17,7.2,10.39,16.54,9.6,26.93-1,13.5-7.75,24.83-13.55,36.61-3.58,7.28-5.77,15.23-8.58,22.88l1.6.58c.72-2.17,1.3-4.4,2.18-6.51,3-7.16,5.22-14.83,9.33-21.28a65.75,65.75,0,0,0,10.52-40.68c-.93-15.19-11.86-28.86-26.91-32.19,3.07,2.12,6.05,3.81,8.58,6a105.11,105.11,0,0,1,7.4,7.8l-2.06-.64c10,22,2.85,43-4.37,64.09a138.15,138.15,0,0,0,8.84-16.68c6.54-15.66,9.41-31.27-2.56-46C314.85,226.51,315,226.07,315,225.75Zm-28.57,94.42c1.92-1.56,4.79-2.73,5.6-4.74,3.89-9.7,7-19.7,10.8-29.45,5.66-14.53,9.7-29.3,9-45.11-.5-10.81-5-17-15.48-19.87a49.59,49.59,0,0,0-6.82-1.47c-20.64-2.77-41.41,10-42.65,31.73-.83,14.47,3.43,27.42,11.11,39.06,5.05,7.67,9.26,15.22,10.32,24.41.4,3.45,2.55,5.24,6.5,4.61.65-13.58-2.2-26.5-6.39-39.17-.32-1-2.18-1.7-3.45-2.07-4.51-1.27-8.07-3.83-8.87-8.45-.41-2.39,1.1-5.1,1.74-7.67,2.34,1.11,5.42,1.64,6.85,3.46,2.35,3,3.64,6.84,5.58,10.74,3.23-2.15,6.35-3.19,3.09-8-2.89-4.29-2.77-9.57.1-14.19.73-1.17,2.71-2.39,3.9-2.2s2.67,2.14,2.74,3.4a67.79,67.79,0,0,1-.42,11.39c-.25,2.17-2.09,4.33,1.25,5.76,3,1.29,5.48,2.07,7.31-1.8a13.3,13.3,0,0,1,4.16-4.9c1.43-1,3.9-2,5.18-1.45s2.46,3.1,2.53,4.82c.15,3.73-1.89,6.32-5.79,6.9-2,.29-4,.27-6.19.41C284,290.31,284.56,304.54,286.42,320.17Zm-11,1.83c-9.21.23-9.23-6.44-10.69-12.53a37.66,37.66,0,0,0-5.37-12.61c-7-10-11.94-20.69-14.19-32.63-5-26.62,12.59-47.82,39.27-47.42,20.76.32,30.6,10.05,29.45,30.71-.53,9.5-2.83,19-5.17,28.27-1.78,7.07-4.88,13.81-7.39,20.69a96.64,96.64,0,0,0,14.53-57.06c-.62-12.24-9.11-21.53-21.15-23.89-4.87-1-9.95-.85-14.82-1.81-13.44-2.66-22.9,3.55-30.11,13.78-3.95,5.6-8.29,11.79-9.49,18.27-2.56,13.81-1.25,27.53,8.07,39.32a56.82,56.82,0,0,1,6.44,10.07c2.9,5.89,5.9,11.83,7.79,18.07S267.56,322.57,275.4,322Zm-4-43.81c2.39,14.07,4.68,27.56,7,41.38l3.58-.39c.77-14.65,1.52-28.82,2.28-43.16l-6.74-2.56Zm-37.25-15.46c1.82-9.59,3.45-19.23,5.53-28.76,1.71-7.81,6-14.45,13.07-18,7.38-3.78,15.52-6.08,23.72-9.18-4.48,0-8.73-.14-13,0-11.64.46-20.07,6.13-25.62,16.23C230.8,235.86,231.67,249.38,234.13,262.73ZM296.91,353l-.41-1.66L267,355.84l.22,1.42C278.11,359.52,293.5,357.31,296.91,353Zm-13.84-15.58.12-.61c-3.31,0-6.63.13-9.93,0-3.65-.18-7.27-.78-10.92-.87-1,0-2,1.12-3.06,1.73.62.86,1.09,2.24,1.9,2.48,2.3.69,4.86,1.59,7.1,1.19C273.28,340.4,278.15,338.76,283.07,337.41Zm9.52-15.9c5.3-1,7.67-5.76,9.25-10.78,1.76-5.6,2.84-11.41,4.21-17.13-2.3,4.67-3.92,9.68-6.12,14.42S295,317.18,292.59,321.51Zm3.53,12.74c-7.3-5.09-18.26-4.22-20.24,0ZM270,210.71l29,3.38C289.69,209.85,280.26,207.14,270,210.71Zm7,135.23C260,343.6,260,343.6,258.65,350Zm-10.36-70.33c-2.28-8.35-3.94-10.6-8.06-11.17C257.34,271.13,259.62,274.47,266.59,275.61Zm-6.95,43.82.6-.53c-1.45-4.26-3.58-8.43-4.2-12.81-1.25-8.78-6.86-14.23-13.1-19.46,7.32,6.21,11,14.22,12.57,23.58C256.05,313.42,258.22,316.36,259.64,319.43ZM272.23,348l.28,1.89,22.26-2.44-.39-2.83Zm5.33-80.07V253.19C272.61,258.49,272.47,262.74,277.56,267.9Zm11,5.91c2.88-.26,5.17.06,6.84-.81,1.24-.64,1.87-2.77,2.36-4.37.2-.63-.71-1.6-1.11-2.42a20.19,20.19,0,0,0-4,2.35A48.09,48.09,0,0,0,288.52,273.81Zm-30.85-58.4c-8,3.29-12.51,9.5-15.35,17.33Zm15.4,126,.43,2.26L292.43,340l-.38-2.05Zm1.56-11.71c.13-4.87-4.78-7.06-11.9-5.07Zm0,3.43-.15-2.4-12.29.63.13,2.32Zm-32.83-50.92,1.12-.4q-2.94-7.67-5.89-15.33l-.86.3Q239,274.44,241.83,282.16Z" transform="translate(-180.9 -154.1)"/><path d="M254.17,195.41l-8.22-41,1.42-.28q4.19,20.49,8.38,41Z" transform="translate(-180.9 -154.1)"/><path d="M370.48,280.14H335.77v-1h34.76Z" transform="translate(-180.9 -154.1)"/><path d="M181.56,251.76l35.33,17.69c-13.13-3.05-23.9-11.07-36-16.31Z" transform="translate(-180.9 -154.1)"/><path d="M366.88,205.33l-33.26,21.4-.81-1.3C344.18,218.75,354.36,210.16,366.88,205.33Z" transform="translate(-180.9 -154.1)"/><path d="M304.34,197.39c-.6-12.48,3.65-23.13,12.18-32.15-2.74,5.14-6,10.09-8.06,15.49S305.66,191.82,304.34,197.39Z" transform="translate(-180.9 -154.1)"/><path d="M206.6,191.16l20.33,23.47C217.7,208.3,210.91,201.13,206.6,191.16Z" transform="translate(-180.9 -154.1)"/></svg>